<svg xmlns="http://www.w3.org/2000/svg" xmlns:xlink="http://www.w3.org/1999/xlink" width="220.928" height="85.869" viewBox="0 0 220.928 85.869">
  <defs>
    <filter id="Union" x="0" y="0" width="220.928" height="85.869" filterUnits="userSpaceOnUse">
      <feOffset dy="1.852" input="SourceAlpha"/>
      <feGaussianBlur stdDeviation="3.148" result="blur"/>
      <feFlood flood-color="#383838" flood-opacity="0.024"/>
      <feComposite operator="in" in2="blur"/>
      <feComposite in="SourceGraphic"/>
    </filter>
  </defs>
  <g id="Grupo_16766" data-name="Grupo 16766" transform="translate(-335.268 -6708.408)">
    <g transform="matrix(1, 0, 0, 1, 335.27, 6708.41)" filter="url(#Union)">
      <path id="Union-2" data-name="Union" d="M14.25,0c.618,0,1.229,0,1.848,0H185.949c.607,0,1.223,0,1.83,0,.42,0,.849.01,1.272.017l.284,0a22.2,22.2,0,0,1,3.377.3,11.492,11.492,0,0,1,3.222,1.05,10.873,10.873,0,0,1,4.725,4.688,11.017,11.017,0,0,1,1.045,3.187,22.438,22.438,0,0,1,.313,3.352c.007.514.007,1.029.007,1.542.014.607.014,1.215.014,1.828V51.013c0,.618,0,1.223-.014,1.832,0,.52,0,1.024-.007,1.544a22.436,22.436,0,0,1-.314,3.352,11,11,0,0,1-1.045,3.189,10.713,10.713,0,0,1-1.995,2.7,10.6,10.6,0,0,1-2.73,1.974,11.554,11.554,0,0,1-3.222,1.056,22.6,22.6,0,0,1-3.377.3c-.514.011-1.042.018-1.557.018-.607,0-1.223,0-1.83,0H16.1c-.619,0-1.231,0-1.848,0-.517,0-1.03-.007-1.552-.018a22.9,22.9,0,0,1-3.383-.3,11.379,11.379,0,0,1-3.209-1.056,10.59,10.59,0,0,1-2.733-1.974,10.4,10.4,0,0,1-1.989-2.7A10.968,10.968,0,0,1,.328,57.741a21.582,21.582,0,0,1-.3-3.352c-.011-.356-.015-.7-.019-1.054,0-.162,0-.325-.007-.489V14.14q0-.246.007-.493c0-.35.008-.7.019-1.049a21.583,21.583,0,0,1,.3-3.352A10.99,10.99,0,0,1,1.383,6.059,10.484,10.484,0,0,1,3.373,3.344,10.866,10.866,0,0,1,6.106,1.37,11.318,11.318,0,0,1,9.315.321,22.492,22.492,0,0,1,12.7.025l.32-.005C13.43.013,13.839.006,14.25,0Z" transform="translate(9.44 7.59)" fill="#212a2f"/>
    </g>
    <path id="Vector" d="M12.784,64.05c-.514,0-1.016-.007-1.527-.018A21.594,21.594,0,0,1,8.1,63.759a9.991,9.991,0,0,1-2.8-.918,9.124,9.124,0,0,1-2.359-1.7A8.914,8.914,0,0,1,1.223,58.8a9.526,9.526,0,0,1-.917-2.775,20.62,20.62,0,0,1-.281-3.14C.014,52.533,0,51.357,0,51.357V12.675s.015-1.158.025-1.5A20.548,20.548,0,0,1,.3,8.042a9.582,9.582,0,0,1,.918-2.783A9,9,0,0,1,2.936,2.918,9.393,9.393,0,0,1,5.3,1.206,9.888,9.888,0,0,1,8.095.3,21.421,21.421,0,0,1,11.261.021L12.785,0H186.3l1.541.021a21.08,21.08,0,0,1,3.138.272,10.084,10.084,0,0,1,2.821.917,9.406,9.406,0,0,1,4.077,4.052,9.594,9.594,0,0,1,.9,2.761,21.586,21.586,0,0,1,.293,3.16c.005.474.005.984.005,1.491.014.628.014,1.226.014,1.828V49.548c0,.608,0,1.2-.014,1.8,0,.545,0,1.043-.007,1.557a21.147,21.147,0,0,1-.289,3.1,9.554,9.554,0,0,1-.912,2.8,9.478,9.478,0,0,1-4.077,4.033,9.954,9.954,0,0,1-2.816.921,21.348,21.348,0,0,1-3.156.273q-.757.018-1.515.018l-1.83,0Z" transform="translate(346.187 6717.465)" fill="#212a2f"/>
    <path id="Vector-2" data-name="Vector" d="M24.984,19.866a8.235,8.235,0,0,1,1.088-3.984,8.318,8.318,0,0,1,2.891-2.969A8.572,8.572,0,0,0,22.224,9.3c-2.835-.3-5.584,1.683-7.029,1.683-1.473,0-3.7-1.653-6.092-1.6a9.028,9.028,0,0,0-4.383,1.3,8.933,8.933,0,0,0-3.169,3.271c-3.265,5.607-.83,13.847,2.3,18.38,1.565,2.219,3.394,4.7,5.787,4.61,2.342-.1,3.216-1.481,6.043-1.481,2.8,0,3.621,1.481,6.063,1.425,2.513-.04,4.1-2.229,5.606-4.469a18.3,18.3,0,0,0,2.564-5.178,8.059,8.059,0,0,1-3.582-2.947A7.961,7.961,0,0,1,24.984,19.866ZM20.372,6.32A8.115,8.115,0,0,0,22.253.475a8.393,8.393,0,0,0-5.416,2.779,7.723,7.723,0,0,0-1.931,5.629,6.969,6.969,0,0,0,3.03-.658,6.912,6.912,0,0,0,2.435-1.9Zm34.215,25H46.595l-1.919,5.62H41.291l7.57-20.794h3.517l7.57,20.794H56.5Zm-7.164-2.594h6.335L50.635,19.6h-.087Zm28.872.635c0,4.711-2.543,7.738-6.379,7.738a5.217,5.217,0,0,1-2.789-.641,5.161,5.161,0,0,1-2.021-2.012h-.073v7.509H61.9V21.778h3.037V24.3h.058a5.4,5.4,0,0,1,2.06-2.007,5.458,5.458,0,0,1,2.807-.673c3.88,0,6.437,3.042,6.437,7.74Zm-3.225,0c0-3.069-1.6-5.087-4.039-5.087-2.4,0-4.01,2.06-4.01,5.087,0,3.055,1.612,5.1,4.01,5.1,2.44,0,4.039-2,4.039-5.1Zm20.05,0c0,4.711-2.542,7.738-6.379,7.738a5.217,5.217,0,0,1-2.789-.641,5.161,5.161,0,0,1-2.02-2.012h-.073v7.509H78.72V21.778h3.037V24.3h.058a5.4,5.4,0,0,1,2.06-2.007,5.458,5.458,0,0,1,2.807-.673c3.88,0,6.437,3.042,6.437,7.74Zm-3.225,0c0-3.069-1.6-5.087-4.04-5.087-2.4,0-4.01,2.06-4.01,5.087,0,3.055,1.612,5.1,4.01,5.1,2.44,0,4.04-2,4.04-5.1Zm14.345,1.786c.232,2.062,2.252,3.416,5.012,3.416,2.645,0,4.547-1.354,4.547-3.213,0-1.614-1.148-2.58-3.865-3.243l-2.717-.649c-3.85-.922-5.637-2.708-5.637-5.606,0-3.588,3.153-6.052,7.629-6.052,4.43,0,7.468,2.464,7.57,6.052h-3.167c-.19-2.075-1.919-3.328-4.447-3.328s-4.257,1.267-4.257,3.112c0,1.47,1.1,2.335,3.807,3l2.31.563c4.3,1.009,6.089,2.723,6.089,5.764,0,3.89-3.125,6.327-8.094,6.327-4.65,0-7.789-2.379-7.992-6.14ZM123.884,18.19v3.588h2.907v2.464h-2.907V32.6c0,1.3.582,1.9,1.86,1.9a9.885,9.885,0,0,0,1.032-.072v2.45a8.686,8.686,0,0,1-1.743.144c-3.095,0-4.3-1.153-4.3-4.093v-8.69h-2.223V21.778h2.223V18.19Zm4.59,11.169c0-4.77,2.833-7.768,7.25-7.768s7.251,3,7.251,7.768-2.8,7.767-7.252,7.767S128.475,34.142,128.475,29.359Zm11.3,0c0-3.272-1.512-5.2-4.054-5.2s-4.053,1.946-4.053,5.2c0,3.285,1.51,5.2,4.053,5.2S139.779,32.644,139.779,29.359Zm5.784-7.581h2.993v2.58h.073a3.614,3.614,0,0,1,1.348-2.017,3.667,3.667,0,0,1,2.329-.722,4.878,4.878,0,0,1,1.075.116v2.911a4.42,4.42,0,0,0-1.41-.188,3.175,3.175,0,0,0-2.444,1,3.119,3.119,0,0,0-.826,2.49v8.992h-3.138Zm22.284,10.708c-.422,2.752-3.125,4.641-6.582,4.641-4.447,0-7.207-2.955-7.207-7.7s2.775-7.839,7.075-7.839c4.229,0,6.889,2.881,6.889,7.478v1.066h-10.8v.188a3.929,3.929,0,0,0,1.079,3.068,4,4,0,0,0,3.033,1.227,3.481,3.481,0,0,0,2.122-.486,3.437,3.437,0,0,0,1.409-1.647ZM157.24,27.961h7.642a3.629,3.629,0,0,0-1.027-2.736,3.692,3.692,0,0,0-2.722-1.111,3.886,3.886,0,0,0-2.755,1.12,3.822,3.822,0,0,0-1.138,2.728ZM47.029.492a4.477,4.477,0,0,1,3.555,1.37,4.4,4.4,0,0,1,1.185,3.6c0,3.192-1.74,5.027-4.74,5.027H43.39V.492ZM44.955,9.071h1.9a3.181,3.181,0,0,0,2.523-1.013,3.124,3.124,0,0,0,.8-2.581,3.133,3.133,0,0,0-.812-2.563A3.189,3.189,0,0,0,46.855,1.9h-1.9Zm8.582-2.36a3.554,3.554,0,0,1,.92-2.743A3.608,3.608,0,0,1,60.54,5.243a3.544,3.544,0,0,1,.168,1.468,3.554,3.554,0,0,1-.917,2.748A3.609,3.609,0,0,1,53.7,8.181,3.545,3.545,0,0,1,53.537,6.711Zm5.627,0c0-1.634-.74-2.59-2.04-2.59s-2.038.956-2.038,2.59.734,2.6,2.038,2.6,2.04-.955,2.04-2.6ZM70.24,10.484H68.683L67.112,4.931h-.119l-1.565,5.553H63.887l-2.1-7.54h1.522L64.675,8.7h.112L66.35,2.944h1.439L69.353,8.7h.119l1.355-5.754h1.5Zm3.85-7.54h1.444v1.2h.112a2.263,2.263,0,0,1,.918-1.032A2.291,2.291,0,0,1,77.915,2.8a2.484,2.484,0,0,1,2,.775,2.439,2.439,0,0,1,.636,2.03v4.881h-1.5V5.976c0-1.212-.531-1.814-1.641-1.814a1.752,1.752,0,0,0-1.35.542,1.721,1.721,0,0,0-.465,1.369v4.411h-1.5ZM82.937,0h1.5V10.484h-1.5Zm3.586,6.71a3.554,3.554,0,0,1,.92-2.743,3.609,3.609,0,0,1,6.084,1.275,3.545,3.545,0,0,1,.168,1.468,3.555,3.555,0,0,1-.918,2.747A3.609,3.609,0,0,1,86.689,8.18a3.545,3.545,0,0,1-.166-1.47Zm5.627,0c0-1.634-.74-2.59-2.04-2.59s-2.038.956-2.038,2.59.734,2.6,2.038,2.6S92.151,8.352,92.151,6.711Zm3.124,1.641c0-1.357,1.019-2.14,2.828-2.251l2.059-.118V5.332c0-.8-.531-1.246-1.556-1.246-.838,0-1.418.3-1.585.838H95.568c.153-1.3,1.382-2.126,3.106-2.126,1.906,0,2.981.941,2.981,2.534v5.152h-1.444V9.424h-.119a2.564,2.564,0,0,1-2.284,1.184,2.309,2.309,0,0,1-1.772-.571,2.27,2.27,0,0,1-.762-1.686Zm4.887-.644v-.63L98.3,7.195c-1.047.069-1.522.423-1.522,1.087s.594,1.074,1.41,1.074a1.8,1.8,0,0,0,1.337-.41,1.773,1.773,0,0,0,.632-1.238Zm3.466-1c0-2.383,1.235-3.892,3.156-3.892a2.522,2.522,0,0,1,1.36.325,2.494,2.494,0,0,1,.972,1h.112V0h1.5V10.484h-1.438V9.292h-.119a2.628,2.628,0,0,1-1.009.988,2.656,2.656,0,0,1-1.379.328c-1.934,0-3.156-1.509-3.156-3.9Zm1.55,0c0,1.6.76,2.562,2.031,2.562s2.046-.976,2.046-2.555-.79-2.561-2.046-2.561S105.177,5.124,105.177,6.711Zm11.758,0a3.553,3.553,0,0,1,.92-2.743,3.608,3.608,0,0,1,6.083,1.275,3.544,3.544,0,0,1,.168,1.468,3.554,3.554,0,0,1-.917,2.748A3.609,3.609,0,0,1,117.1,8.181a3.545,3.545,0,0,1-.165-1.47Zm5.627,0c0-1.634-.74-2.59-2.04-2.59s-2.038.956-2.038,2.59.734,2.6,2.038,2.6S122.562,8.352,122.562,6.711Zm3.556-3.767h1.444v1.2h.112a2.263,2.263,0,0,1,.918-1.032,2.291,2.291,0,0,1,1.351-.312,2.484,2.484,0,0,1,2,.775,2.439,2.439,0,0,1,.636,2.03v4.881h-1.5V5.976c0-1.212-.531-1.814-1.641-1.814a1.752,1.752,0,0,0-1.35.542,1.721,1.721,0,0,0-.465,1.369v4.411h-1.5Zm14.935-1.877V2.978H142.7V4.231h-1.647V8.109c0,.79.328,1.136,1.075,1.136a5.05,5.05,0,0,0,.572-.034v1.24a4.962,4.962,0,0,1-.816.076c-1.668,0-2.333-.582-2.333-2.036V4.231h-1.207V2.978h1.207V1.067ZM144.75,0h1.487V4.155h.119a2.327,2.327,0,0,1,.944-1.039,2.355,2.355,0,0,1,1.374-.312,2.515,2.515,0,0,1,1.976.795,2.471,2.471,0,0,1,.642,2.016v4.868h-1.5v-4.5c0-1.2-.566-1.814-1.626-1.814a1.785,1.785,0,0,0-1.405.514,1.753,1.753,0,0,0-.509,1.4v4.4h-1.5Zm15.291,8.448a3.063,3.063,0,0,1-1.248,1.684,3.106,3.106,0,0,1-2.047.5,3.467,3.467,0,0,1-2.664-1.14,3.406,3.406,0,0,1-.848-2.752,3.458,3.458,0,0,1,.846-2.763A3.519,3.519,0,0,1,156.74,2.8c2.115,0,3.392,1.433,3.392,3.8v.519h-5.369V7.2a1.983,1.983,0,0,0,.531,1.524,2.017,2.017,0,0,0,1.494.636,1.835,1.835,0,0,0,1.045-.184,1.816,1.816,0,0,0,.764-.73Zm-5.278-2.43h3.84a1.811,1.811,0,0,0-.5-1.388,1.842,1.842,0,0,0-1.372-.566,1.953,1.953,0,0,0-1.4.565,1.92,1.92,0,0,0-.569,1.388Z" transform="translate(361.549 6730.129)" fill="#fff"/>
  </g>
</svg>
