<svg xmlns="http://www.w3.org/2000/svg" xmlns:xlink="http://www.w3.org/1999/xlink" width="220.928" height="85.869" viewBox="0 0 220.928 85.869">
  <defs>
    <filter id="Vector" x="0" y="0" width="220.928" height="85.869" filterUnits="userSpaceOnUse">
      <feOffset dy="1.852" input="SourceAlpha"/>
      <feGaussianBlur stdDeviation="3.148" result="blur"/>
      <feFlood flood-color="#383838" flood-opacity="0.024"/>
      <feComposite operator="in" in2="blur"/>
      <feComposite in="SourceGraphic"/>
    </filter>
    <filter id="Vector-2" x="0" y="0" width="220.928" height="85.869" filterUnits="userSpaceOnUse">
      <feOffset dy="1.852" input="SourceAlpha"/>
      <feGaussianBlur stdDeviation="3.148" result="blur-2"/>
      <feFlood flood-color="#383838" flood-opacity="0.024"/>
      <feComposite operator="in" in2="blur-2"/>
      <feComposite in="SourceGraphic"/>
    </filter>
    <linearGradient id="linear-gradient" x1="0.613" y1="0.044" x2="0.26" y2="0.722" gradientUnits="objectBoundingBox">
      <stop offset="0" stop-color="#00a0ff"/>
      <stop offset="0.007" stop-color="#00a1ff"/>
      <stop offset="0.26" stop-color="#00beff"/>
      <stop offset="0.512" stop-color="#00d2ff"/>
      <stop offset="0.76" stop-color="#00dfff"/>
      <stop offset="1" stop-color="#00e3ff"/>
    </linearGradient>
    <linearGradient id="linear-gradient-2" x1="1.076" y1="0.491" x2="0" y2="0.491" gradientUnits="objectBoundingBox">
      <stop offset="0" stop-color="#ffe000"/>
      <stop offset="0.409" stop-color="#ffbd00"/>
      <stop offset="0.775" stop-color="orange"/>
      <stop offset="1" stop-color="#ff9c00"/>
    </linearGradient>
    <linearGradient id="linear-gradient-3" x1="0.867" y1="0.309" x2="0" y2="1" gradientUnits="objectBoundingBox">
      <stop offset="0" stop-color="#ff3a44"/>
      <stop offset="1" stop-color="#c31162"/>
    </linearGradient>
    <linearGradient id="linear-gradient-4" y1="-0.119" x2="0.418" y2="0.351" gradientUnits="objectBoundingBox">
      <stop offset="0" stop-color="#32a071"/>
      <stop offset="0.068" stop-color="#2da771"/>
      <stop offset="0.476" stop-color="#15cf74"/>
      <stop offset="0.801" stop-color="#06e775"/>
      <stop offset="1" stop-color="#00f076"/>
    </linearGradient>
    <linearGradient id="linear-gradient-5" x1="1.128" x2="0" gradientUnits="objectBoundingBox">
      <stop offset="0" stop-color="#e0c500"/>
      <stop offset="0.409" stop-color="#e0a600"/>
      <stop offset="0.775" stop-color="#e09100"/>
      <stop offset="1" stop-color="#e08900"/>
    </linearGradient>
    <linearGradient id="linear-gradient-6" x1="1.128" y1="1" x2="0" y2="1" gradientUnits="objectBoundingBox">
      <stop offset="0" stop-color="#ffe840"/>
      <stop offset="0.409" stop-color="#ffce40"/>
      <stop offset="0.775" stop-color="#ffbc40"/>
      <stop offset="1" stop-color="#ffb540"/>
    </linearGradient>
    <linearGradient id="linear-gradient-7" y1="0.144" x2="0.421" y2="0.463" gradientUnits="objectBoundingBox">
      <stop offset="0" stop-color="#65b895"/>
      <stop offset="0.068" stop-color="#62bd95"/>
      <stop offset="0.476" stop-color="#50db97"/>
      <stop offset="0.801" stop-color="#44ed98"/>
      <stop offset="1" stop-color="#40f498"/>
    </linearGradient>
  </defs>
  <g id="Grupo_16766" data-name="Grupo 16766" transform="translate(-558.268 -6708.408)">
    <g transform="matrix(1, 0, 0, 1, 558.27, 6708.41)" filter="url(#Vector)">
      <path id="Vector-3" data-name="Vector" d="M194.556,0H7.483C3.367,0,0,3.768,0,8.373V58.608c0,4.6,3.367,8.373,7.483,8.373H194.556c4.116,0,7.483-3.768,7.483-8.373V8.373C202.039,3.768,198.672,0,194.556,0Z" transform="translate(9.44 7.59)" fill="#212a2f"/>
    </g>
    <g transform="matrix(1, 0, 0, 1, 558.27, 6708.41)" filter="url(#Vector-2)">
      <path id="Vector-4" data-name="Vector" d="M7.483,0H194.556c4.116,0,7.483,3.768,7.483,8.373V58.608c0,4.6-3.367,8.373-7.483,8.373H7.483C3.367,66.98,0,63.213,0,58.608V8.373C0,3.768,3.367,0,7.483,0Z" transform="translate(9.44 7.59)" fill="#212a2f"/>
    </g>
    <path id="Vector-5" data-name="Vector" d="M192.667,65H7.333C3.3,65,0,61.344,0,56.875V8.125C0,3.656,3.3,0,7.333,0H192.667C196.7,0,200,3.656,200,8.125v48.75C200,61.344,196.7,65,192.667,65Z" transform="translate(568.752 6717)" fill="#212a2f"/>
    <path id="Vector-6" data-name="Vector" d="M9.079,5.656A4.85,4.85,0,0,1,7.964,9.01a4.132,4.132,0,0,1-3.3,1.487,4.284,4.284,0,0,1-3.3-1.508A5.373,5.373,0,0,1,0,5.249a5.375,5.375,0,0,1,1.361-3.74A4.287,4.287,0,0,1,4.665,0,4.212,4.212,0,0,1,6.508.421a3.747,3.747,0,0,1,1.4,1.122l-.789.884A2.9,2.9,0,0,0,4.665,1.236,3.236,3.236,0,0,0,2.213,2.351a4.093,4.093,0,0,0-1.035,2.9,4.093,4.093,0,0,0,1.035,2.9A3.236,3.236,0,0,0,4.665,9.262,3.225,3.225,0,0,0,7.173,8.14,3.358,3.358,0,0,0,7.926,6.1H4.665V4.9H9.016a4.783,4.783,0,0,1,.063.758" transform="translate(629.6 6727.496)" fill="#fff"/>
    <path id="Vector-7" data-name="Vector" d="M9.229,5.824h-.15A4.67,4.67,0,0,1,8.008,9.059h0A3.988,3.988,0,0,1,4.815,10.5a4.144,4.144,0,0,1-3.2-1.459A5.2,5.2,0,0,1,.3,5.416,5.194,5.194,0,0,1,1.616,1.8,4.143,4.143,0,0,1,4.815.335,4.078,4.078,0,0,1,6.6.742,3.6,3.6,0,0,1,7.948,1.819l.115-.108-.106-.118-.789.884.106.118.115-.107A3.047,3.047,0,0,0,4.815,1.236,3.378,3.378,0,0,0,2.259,2.4,4.273,4.273,0,0,0,1.178,5.416,4.273,4.273,0,0,0,2.259,8.434,3.378,3.378,0,0,0,4.815,9.6,3.366,3.366,0,0,0,7.428,8.426a3.54,3.54,0,0,0,.8-2.139L8.239,6.1H4.964V5.233h4.2V5.065l-.147.029a4.558,4.558,0,0,1,.06.729h.3a4.938,4.938,0,0,0-.065-.788L9.291,4.9H4.665V6.44H8.076V6.272l-.149-.014a3.187,3.187,0,0,1-.71,1.931,3.083,3.083,0,0,1-2.4,1.073A3.09,3.09,0,0,1,2.466,8.193a3.914,3.914,0,0,1-.989-2.777,3.914,3.914,0,0,1,.989-2.777A3.09,3.09,0,0,1,4.815,1.571,2.755,2.755,0,0,1,7.158,2.7l.105.14.9-1.013.1-.109L8.177,1.6A3.892,3.892,0,0,0,6.717.435,4.347,4.347,0,0,0,4.815,0,4.432,4.432,0,0,0,1.4,1.558,5.556,5.556,0,0,0,0,5.416,5.558,5.558,0,0,0,1.405,9.275a4.43,4.43,0,0,0,3.409,1.556A4.277,4.277,0,0,0,8.222,9.293l-.108-.116.106.118A5.031,5.031,0,0,0,9.378,5.824h-.15Zm6.9-4.2H12.037V4.812h3.688V6.02H12.037V9.205h4.089V10.44H10.885V.393h5.242Z" transform="translate(629.45 6727.328)" fill="#fff"/>
    <path id="Vector-8" data-name="Vector" d="M5.392,1.4V1.234H1.153v3.52H4.841v.872H1.153v3.52H5.242v.9H.3V.335H5.242V1.4h.15v0h.15V0H0V10.382H5.541V8.813H1.452V5.962H5.14V4.42H1.452V1.569H5.541V1.4Zm4.866,8.813H9.1V1.4H6.595V.167h6.171V1.4H10.257v8.813" transform="translate(640.185 6727.555)" fill="#fff"/>
    <path id="Vector-9" data-name="Vector" d="M3.812,10.215v-.168h-1V1.234H.3v-.9H6.171v.9H3.663v8.98h.15v0h.15V1.569H6.47V0H0V1.569H2.508v8.813H3.962v-.167h-.15Zm6.973,0V.167h1.153V10.214H10.785" transform="translate(646.63 6727.555)" fill="#fff"/>
    <path id="Vector-10" data-name="Vector" d="M.15,10.215H.3V.335h.854v9.712h-1v.167h0v.167h1.3V0H0V10.382H.15v-.167Zm6.272,0H5.267V1.4H2.759V.167h6.17V1.4H6.421v8.813" transform="translate(657.265 6727.555)" fill="#fff"/>
    <path id="Vector-11" data-name="Vector" d="M3.812,10.272V10.1h-1V1.292H.3v-.9H6.17v.9H3.662v8.98h.15v0h.15V1.627H6.47V.058H0V1.627H2.508v8.813H3.962v-.167h-.15Zm8.457-2.14a3.2,3.2,0,0,0,4.879,0,4.2,4.2,0,0,0,1-2.884,4.2,4.2,0,0,0-1-2.884,3.2,3.2,0,0,0-4.879,0,4.2,4.2,0,0,0-1,2.884A4.2,4.2,0,0,0,12.269,8.133ZM18,8.974a4.319,4.319,0,0,1-6.584,0,5.473,5.473,0,0,1-1.323-3.725,5.473,5.473,0,0,1,1.323-3.725A4.306,4.306,0,0,1,18,1.53a5.475,5.475,0,0,1,1.329,3.719A5.485,5.485,0,0,1,18,8.974Z" transform="translate(659.875 6727.496)" fill="#fff"/>
    <path id="Vector-12" data-name="Vector" d="M2.324,8.3l-.106.118A3.275,3.275,0,0,0,4.764,9.6,3.273,3.273,0,0,0,7.309,8.418a4.379,4.379,0,0,0,1.042-3,4.38,4.38,0,0,0-1.042-3A3.273,3.273,0,0,0,4.764,1.236,3.275,3.275,0,0,0,2.218,2.414a4.383,4.383,0,0,0-1.04,3,4.383,4.383,0,0,0,1.04,3L2.324,8.3l.106-.118a4.022,4.022,0,0,1-.954-2.766A4.023,4.023,0,0,1,2.431,2.65,2.989,2.989,0,0,1,4.764,1.571,2.987,2.987,0,0,1,7.1,2.65a4.017,4.017,0,0,1,.955,2.766A4.017,4.017,0,0,1,7.1,8.182,2.986,2.986,0,0,1,4.764,9.262,2.989,2.989,0,0,1,2.431,8.182Zm5.732.841-.107-.116A4.045,4.045,0,0,1,4.764,10.5,4.041,4.041,0,0,1,1.579,9.025l0-.005,0,.005A5.3,5.3,0,0,1,.3,5.416a5.3,5.3,0,0,1,1.28-3.609A4.041,4.041,0,0,1,4.764.335a4.044,4.044,0,0,1,3.18,1.48,5.3,5.3,0,0,1,1.286,3.6,5.308,5.308,0,0,1-1.28,3.609l.107.116.108.116A5.667,5.667,0,0,0,9.529,5.416,5.657,5.657,0,0,0,8.158,1.581,4.329,4.329,0,0,0,4.764,0a4.326,4.326,0,0,0-3.4,1.575h0A5.66,5.66,0,0,0,0,5.416,5.66,5.66,0,0,0,1.365,9.258l0,0,0-.005a4.327,4.327,0,0,0,3.4,1.574,4.333,4.333,0,0,0,3.4-1.574l-.108-.116ZM11,10.44V.392h1.4l4.364,7.816h.05l-.05-1.936V.392h1.155V10.44h-1.2L12.152,2.245H12.1l.05,1.937V10.44H11" transform="translate(669.819 6727.328)" fill="#fff"/>
    <path id="Vector-13" data-name="Vector" d="M51.682,10.215h.15V.335H53l4.364,7.816h.286L57.6,6.045V.335h.855v9.712h-.972L52.918,1.852h-.286l.054,2.107v6.088h-1v.167h0v.167h1.3V3.954l-.05-1.939-.15,0v.167h.05V2.02l-.127.089,4.61,8.273h1.437V0H57.3V6.049l.05,1.939.15,0V7.816h-.05v.167l.127-.089L53.17,0H51.533V10.382h.15v-.167ZM98.616,38.681h2.793V17.748H98.616Zm25.153-13.393-3.2,9.076h-.1l-3.322-9.076h-3.008l4.982,12.685-2.84,7.056H119.2l7.678-19.741ZM107.933,36.3c-.916,0-2.191-.512-2.191-1.778,0-1.616,1.589-2.235,2.96-2.235a4.562,4.562,0,0,1,2.552.7,3.544,3.544,0,0,1-3.321,3.312Zm.337-11.473a5.175,5.175,0,0,0-4.982,3.205l2.478,1.158a2.591,2.591,0,0,1,2.552-1.535,2.79,2.79,0,0,1,2.936,2.694v.215a5.673,5.673,0,0,0-2.912-.808c-2.671,0-5.392,1.642-5.392,4.713a4.532,4.532,0,0,0,4.645,4.606,3.856,3.856,0,0,0,3.563-2.047h.1v1.616h2.7V30.621a5.4,5.4,0,0,0-5.68-5.79ZM91.011,27.837H87.039V20.661h3.972a3.455,3.455,0,0,1,3.273,3.588A3.475,3.475,0,0,1,91.011,27.837Zm-.072-10.089H84.248V38.681h2.791V30.75h3.9a6.257,6.257,0,0,0,6.137-6.5,6.257,6.257,0,0,0-6.137-6.5ZM54.451,36.307c-1.929,0-3.544-1.807-3.544-4.29,0-2.508,1.615-4.343,3.544-4.343,1.9,0,3.4,1.835,3.4,4.343,0,2.482-1.495,4.29-3.4,4.29Zm3.207-9.847h-.1a4.216,4.216,0,0,0-3.351-1.591c-3.183,0-6.1,3.129-6.1,7.149,0,3.993,2.917,7.1,6.1,7.1a4.156,4.156,0,0,0,3.351-1.618h.1V38.52c0,2.725-1.3,4.182-3.4,4.182a3.586,3.586,0,0,1-3.207-2.536L48.616,41.3a6.135,6.135,0,0,0,5.642,4.209c3.279,0,6.052-2.159,6.052-7.419V25.3H57.657Zm4.581,12.221h2.8V17.747h-2.8Zm6.92-6.906c-.072-2.752,1.9-4.154,3.327-4.154a2.438,2.438,0,0,1,2.362,1.511Zm8.68-2.374c-.53-1.592-2.146-4.532-5.449-4.532-3.279,0-6,2.886-6,7.122,0,3.993,2.7,7.122,6.317,7.122a6.227,6.227,0,0,0,5.3-3.156l-2.17-1.619a3.575,3.575,0,0,1-3.135,1.97,3.229,3.229,0,0,1-3.086-2.158l8.511-3.939ZM10.03,27.054v3.021h6.461a6.677,6.677,0,0,1-1.471,3.8,6.292,6.292,0,0,1-4.991,2.212c-3.978,0-7.088-3.588-7.088-8.039s3.11-8.039,7.088-8.039a6.527,6.527,0,0,1,4.87,2.158l1.9-2.131a8.94,8.94,0,0,0-6.775-3.049C4.581,16.992,0,21.956,0,28.053s4.581,11.06,10.03,11.06a8.576,8.576,0,0,0,6.9-3.1,10.711,10.711,0,0,0,2.339-7.068,10.935,10.935,0,0,0-.145-1.888Zm16.581,9.253c-1.929,0-3.593-1.781-3.593-4.316,0-2.563,1.664-4.316,3.593-4.316S30.2,29.428,30.2,31.991C30.2,34.527,28.539,36.307,26.611,36.307Zm0-11.438c-3.521,0-6.39,2.994-6.39,7.122,0,4.1,2.869,7.122,6.39,7.122S33,36.092,33,31.991C33,27.863,30.13,24.869,26.611,24.869ZM40.549,36.307c-1.928,0-3.592-1.781-3.592-4.316,0-2.563,1.664-4.316,3.592-4.316s3.592,1.754,3.592,4.316c0,2.536-1.664,4.316-3.592,4.316Zm0-11.438c-3.52,0-6.389,2.994-6.389,7.122,0,4.1,2.869,7.122,6.389,7.122s6.389-3.021,6.389-7.122c0-4.128-2.869-7.122-6.389-7.122Z" transform="translate(629.135 6727.555)" fill="#fff"/>
    <path id="Vector-14" data-name="Vector" d="M.8.544A3.457,3.457,0,0,0,0,3.019V39.563a3.611,3.611,0,0,0,.693,2.353l.111.119h0a1.81,1.81,0,0,0,1.322.544A3.183,3.183,0,0,0,3.8,42.018l21.723-13.81,7.462-4.744a3.089,3.089,0,0,0,1.569-2.171v0a3.088,3.088,0,0,0-1.569-2.172l-7.462-4.744L3.8.563A3.189,3.189,0,0,0,2.123,0,1.812,1.812,0,0,0,.8.544Z" transform="translate(582.638 6728.203)" fill="#00c1ff"/>
    <path id="Vector-15" data-name="Vector" d="M.8,0,.693-.119A3.611,3.611,0,0,1,0-2.472V-39.016a3.457,3.457,0,0,1,.8-2.475L19.344-20.745Z" transform="translate(582.638 6770.236)" fill="url(#linear-gradient)"/>
    <path id="Vector-16" data-name="Vector" d="M6.182,0,0-6.918l6.181-6.917,7.462,4.744a3.088,3.088,0,0,1,1.569,2.172v0a3.089,3.089,0,0,1-1.569,2.171L6.182,0" transform="translate(601.982 6756.41)" fill="url(#linear-gradient-2)"/>
    <path id="Vector-17" data-name="Vector" d="M1.322,0A1.81,1.81,0,0,1,0-.544H0L18.541-21.29l6.182,6.918L3-.562A3.183,3.183,0,0,1,1.322,0Z" transform="translate(583.442 6770.781)" fill="url(#linear-gradient-3)"/>
    <path id="Vector-18" data-name="Vector" d="M18.542,0,0-20.746a1.812,1.812,0,0,1,1.321-.544A3.188,3.188,0,0,1,3-20.727L24.724-6.917,18.542,0" transform="translate(583.44 6749.492)" fill="url(#linear-gradient-4)"/>
    <path id="Vector-19" data-name="Vector" d="M.139,0,0-.156,7.462-4.9A3.089,3.089,0,0,0,9.03-7.071a2.282,2.282,0,0,1-.173.864,3.434,3.434,0,0,1-1.4,1.552L.139,0" transform="translate(608.164 6756.564)" fill="url(#linear-gradient-5)"/>
    <path id="Vector-20" data-name="Vector" d="M9.031,0A3.088,3.088,0,0,0,7.462-2.172L0-6.916l.139-.156h0L7.462-2.416A2.952,2.952,0,0,1,9.031,0Z" transform="translate(608.163 6749.492)" fill="url(#linear-gradient-6)"/>
    <path id="Vector-21" data-name="Vector" d="M24.833,0,3.11-13.81a3.189,3.189,0,0,0-1.68-.563,1.812,1.812,0,0,0-1.321.544L0-13.953q.051-.061.106-.117l0,0a1.812,1.812,0,0,1,1.309-.544h.011a3.188,3.188,0,0,1,1.68.563L24.973-.156h0Z" transform="translate(583.331 6742.574)" fill="url(#linear-gradient-7)"/>
  </g>
</svg>
