<svg xmlns="http://www.w3.org/2000/svg" width="245.662" height="270.838" viewBox="0 0 245.662 270.838">
  <path id="Unión_36" data-name="Unión 36" d="M26.325,265.722C7.183,256.738-2.858,236.412.713,211.545,8.368,158.2,29.853,112.306,64.688,73.925,107.955,26.859,160.577,3.148,221.207.045c16.6-.85,25.8,10.358,22.261,25.483-2.837,12.191-11.814,13.785-21.088,14.043a172.641,172.641,0,0,0-79.2,21.017C87.311,91.024,52.731,140.074,37.713,205.882a41.726,41.726,0,0,0-.679,8.241c-.173,8.843,4.009,13.537,7.438,14.491,7.491,2.08,8.994-5.65,10.088-12.517,10.308-64.3,45.57-108.41,96.6-138.545,12.913-7.628,27.964-12.014,42.532-14.936,22.674-4.54,44.865,13.4,49.808,37.821,4.979,24.73-8.1,50.79-30.764,57.107-44.723,12.46-68.575,42.931-71.561,93.133-.732,12.324-7.513,18.93-18.636,18.386-11.316-.553-17.028-8.494-16.761-20.49.84-37.642,12.946-69.838,39.035-95.446,15.588-15.3,32.982-26.056,53.294-32.064,4.1-1.213,11.514-7.472,10.013-12.98-1.507-5.545-10.8-6.337-14.982-4.993C139.262,120.446,103.96,157.7,91.013,218.562c-2.2,10.285-4.857,21.244-10.15,29.8-8.741,14.146-22.35,21.469-36.434,21.469A42.665,42.665,0,0,1,26.325,265.722Zm177.76-3.938q-14.884-.221-24.474-10.691-9.155-9.985-9.012-25.837t9.588-26.153a31.471,31.471,0,0,1,15.258-9.356,34.116,34.116,0,0,1,17.654-.082,29.929,29.929,0,0,1,14.762,8.8q10.015,10.926,10.3,26.642.28,15.68-9.742,26.617-9.21,10.046-23.6,10.07Q204.456,261.79,204.085,261.784Z" transform="translate(0.523 0.505)" fill="#3db9be" stroke="rgba(0,0,0,0)" stroke-miterlimit="10" stroke-width="1" opacity="0.5"/>
</svg>
