<svg id="Componente_12_1" data-name="Componente 12 – 1" xmlns="http://www.w3.org/2000/svg" xmlns:xlink="http://www.w3.org/1999/xlink" width="384.48" height="206.909" viewBox="0 0 384.48 206.909">
  <defs>
    <clipPath id="clip-path">
      <rect id="Rectángulo_11046" data-name="Rectángulo 11046" width="300.4" height="128.809" fill="none"/>
    </clipPath>
    <clipPath id="clip-path-2">
      <rect id="Rectángulo_1" data-name="Rectángulo 1" width="384.48" height="51.501" fill="#212a2f"/>
    </clipPath>
  </defs>
  <g id="Grupo_16659" data-name="Grupo 16659" transform="translate(4)">
    <rect id="Rectángulo_11045" data-name="Rectángulo 11045" width="13.256" height="39.324" transform="translate(201.8 26.519)" fill="#212a2f"/>
    <path id="Trazado_17469" data-name="Trazado 17469" d="M363.938,101.088h-14.8l-5.007-26.511-5.007,26.511h-14.8L311.874,61.764h14.58l5.154,28.13,4.714-27.836h15.76l5.007,27.91,5.008-28.2h14.285Z" transform="translate(-177.966 -35.245)" fill="#212a2f"/>
    <g id="Grupo_16658" data-name="Grupo 16658">
      <g id="Grupo_16657" data-name="Grupo 16657" clip-path="url(#clip-path)">
        <path id="Trazado_17470" data-name="Trazado 17470" d="M548.56,71.88H535.525c-.589-2.724-1.913-4.27-4.27-4.27a2.91,2.91,0,0,0-3.168,2.872c0,2.209,1.769,3.682,9.279,5.523,7.143,1.768,12.224,4.86,12.224,12.446,0,8.395-7.88,12.3-17.379,12.3-10.679,0-17.969-4.418-19-13.255h13.034a6.156,6.156,0,0,0,5.891,5.006c2.356,0,4.2-.956,4.2-3.018,0-2.5-2.5-3.9-9.5-5.522-7.512-1.768-12-5.23-12-11.931,0-7.805,6.775-12.666,17.232-12.666,9.794,0,15.465,5.376,16.5,12.518" transform="translate(-292.857 -33.874)" fill="#212a2f"/>
        <path id="Trazado_17471" data-name="Trazado 17471" d="M645.295,83.369H617.9c.663,6.555,3.535,8.4,7.291,8.4s6.038-1.915,6.553-4.934h13.036c-2.283,8.911-9.647,13.917-19.737,13.917-11.267,0-20.251-6.7-20.251-20.545,0-11.488,7.88-20.841,20.989-20.841s19.734,10.014,19.734,20.177a35.28,35.28,0,0,1-.221,3.83m-26.952-8.1h13.33c-.737-4.639-3.021-6.923-6.556-6.923-3.46,0-5.891,2.062-6.774,6.923" transform="translate(-345.116 -33.874)" fill="#212a2f"/>
        <path id="Trazado_17472" data-name="Trazado 17472" d="M33.824,35.206C56.411,12.749,83.859,1.458,115.466.021c8.651-.394,13.441,4.97,11.586,12.2-1.487,5.823-6.167,6.577-11,6.695a96.441,96.441,0,0,0-41.3,9.982C45.6,43.4,27.544,66.808,19.67,98.245a18.232,18.232,0,0,0-.36,3.937c-.1,4.225,2.08,6.473,3.867,6.931,3.9,1,4.692-2.693,5.267-5.973C33.863,72.42,52.275,51.368,78.9,37.006c6.737-3.635,14.586-5.72,22.181-7.1,11.823-2.152,23.378,6.438,25.938,18.112,2.578,11.821-4.258,24.265-16.077,27.266C87.619,81.2,75.164,95.743,73.572,119.73c-.391,5.888-3.93,9.041-9.728,8.772-5.9-.273-8.87-4.072-8.723-9.8.464-17.987,6.8-33.364,20.416-45.581a67.042,67.042,0,0,1,27.8-15.282c2.14-.577,6.008-3.562,5.228-6.2-.782-2.65-5.625-3.036-7.806-2.4-28.1,8.252-46.526,26.027-53.318,55.1-1.153,4.912-2.547,10.148-5.312,14.233a22.861,22.861,0,0,1-28.442,8.252C3.719,122.524-1.5,112.8.379,100.923A117.165,117.165,0,0,1,33.824,35.206" transform="translate(0 0)" fill="#3db9be" fill-rule="evenodd"/>
        <path id="Trazado_17473" data-name="Trazado 17473" d="M212.256,214.726a16.7,16.7,0,0,1,7.954-4.47,19.333,19.333,0,0,1,9.2-.039,15.914,15.914,0,0,1,7.7,4.2,17.887,17.887,0,0,1,5.371,12.731,16.934,16.934,0,0,1-17.765,17.529,17.641,17.641,0,0,1-12.758-5.109,16.454,16.454,0,0,1-4.7-12.346,17.18,17.18,0,0,1,5-12.5" transform="translate(-118.268 -119.651)" fill="#212a2f"/>
        <path id="Trazado_17474" data-name="Trazado 17474" d="M483.517,166.863c0,3.976-2.725,6.48-6.848,6.48s-6.849-2.5-6.849-6.48,2.725-6.48,6.849-6.48,6.848,2.5,6.848,6.48" transform="translate(-268.095 -91.52)" fill="#212a2f"/>
        <path id="Trazado_17475" data-name="Trazado 17475" d="M483.517,166.863c0,3.976-2.725,6.48-6.848,6.48s-6.849-2.5-6.849-6.48,2.725-6.48,6.849-6.48,6.848,2.5,6.848,6.48" transform="translate(-268.095 -91.52)" fill="none" stroke="#fff" stroke-miterlimit="10" stroke-width="1.841"/>
        <path id="Trazado_17476" data-name="Trazado 17476" d="M483.517,166.863c0,3.976-2.725,6.48-6.848,6.48s-6.849-2.5-6.849-6.48,2.725-6.48,6.849-6.48,6.848,2.5,6.848,6.48" transform="translate(-268.095 -91.52)" fill="#212a2f"/>
        <path id="Trazado_17477" data-name="Trazado 17477" d="M380.5,177.434H370v-1.6c0-3.046,1.523-4.417,4.189-4.417a14.661,14.661,0,0,1,5.255.99v-9.6a25.628,25.628,0,0,0-8.225-1.143q-6.169,0-9.367,3.2c-2.132,2.133-3.275,5.407-3.275,9.9v2.589h-4.8v9.52h4.8V217.8h11.576v-30.92H380.5V217.8H392.08V162.2H380.5Z" transform="translate(-201.876 -92.254)" fill="#3db9be"/>
        <path id="Trazado_17478" data-name="Trazado 17478" d="M470.618,195.549c-11.881,0-20.182,9.6-20.182,21.248v.152c0,12.49,9.063,21.1,21.324,21.1,7.388,0,12.871-2.894,16.679-7.616l-6.626-5.864c-3.2,2.97-6.017,4.189-9.9,4.189-5.178,0-8.834-2.741-9.977-8h28.407c.076-1.067.152-2.133.152-3.046,0-11.576-6.245-22.162-19.877-22.162m-8.834,17.973c.914-5.255,4.036-8.682,8.834-8.682,4.874,0,7.92,3.5,8.606,8.682Z" transform="translate(-257.035 -111.587)" fill="#3db9be"/>
        <path id="Trazado_17479" data-name="Trazado 17479" d="M566.042,195.549c-11.881,0-20.182,9.6-20.182,21.248v.152c0,12.49,9.063,21.1,21.324,21.1,7.388,0,12.871-2.894,16.679-7.616l-6.626-5.864c-3.2,2.97-6.017,4.189-9.9,4.189-5.179,0-8.834-2.741-9.977-8h28.407c.076-1.067.152-2.133.152-3.046,0-11.576-6.245-22.162-19.877-22.162m-8.835,17.973c.914-5.255,4.036-8.682,8.835-8.682,4.874,0,7.921,3.5,8.606,8.682Z" transform="translate(-311.487 -111.587)" fill="#3db9be"/>
        <path id="Trazado_17480" data-name="Trazado 17480" d="M665.022,193.356v-9.9h-9.6V173.022H643.85v10.434h-4.874v9.9h4.874V212.7c0,9.444,4.8,12.261,11.881,12.261a17.068,17.068,0,0,0,9.139-2.361V213.31a11.771,11.771,0,0,1-5.712,1.447c-2.589,0-3.732-1.295-3.732-3.96v-17.44Z" transform="translate(-364.622 -98.732)" fill="#3db9be"/>
      </g>
    </g>
  </g>
  <g id="Componente_11_1" data-name="Componente 11 – 1" transform="translate(0 155.408)">
    <g id="Grupo_2" data-name="Grupo 2">
      <g id="Grupo_1" data-name="Grupo 1" clip-path="url(#clip-path-2)">
        <text id="Powered" transform="translate(5.768 25.393)" fill="#212a2f" font-size="30" font-family="SegoeUI, Segoe UI"><tspan x="0" y="0" letter-spacing="-0.019em">P</tspan><tspan y="0" letter-spacing="-0.009em">ow</tspan><tspan y="0">e</tspan><tspan y="0" letter-spacing="-0.029em">r</tspan><tspan y="0">ed</tspan></text>
        <text id="by" transform="translate(105.662 43.842)" fill="#212a2f" font-size="16" font-family="SegoeUI, Segoe UI"><tspan x="0" y="0" letter-spacing="-0.009em">b</tspan><tspan y="0">y</tspan></text>
      </g>
    </g>
    <path id="Trazado_1" data-name="Trazado 1" d="M275.68,38.653H271.4l-3.317-12.984-3.289,12.984h-4.28L255.1,19.745h4.508l3.317,13.664,3.6-13.664h3.147l3.572,13.664,3.289-13.664h4.536Z" transform="translate(-28.605 -2.213)" fill="#212a2f"/>
    <rect id="Rectángulo_2" data-name="Rectángulo 2" width="4.026" height="18.909" transform="translate(254.36 17.531)" fill="#212a2f"/>
    <g id="Grupo_4" data-name="Grupo 4">
      <g id="Grupo_3" data-name="Grupo 3" clip-path="url(#clip-path-2)">
        <path id="Trazado_2" data-name="Trazado 2" d="M301.791,38.958a10.689,10.689,0,0,1-7.994-3l2.182-3.062a7.985,7.985,0,0,0,6.011,2.552,4.154,4.154,0,0,0,2.423-.61,1.78,1.78,0,0,0,.865-1.488,1.487,1.487,0,0,0-.808-1.276,5.741,5.741,0,0,0-2.013-.737,25.752,25.752,0,0,1-2.622-.652,21.718,21.718,0,0,1-2.623-.964,4.79,4.79,0,0,1-2.821-4.536,5.165,5.165,0,0,1,1.957-4.1,7.792,7.792,0,0,1,5.216-1.659,10.452,10.452,0,0,1,7.37,2.636L306.7,25.011a7.8,7.8,0,0,0-5.5-2.07,3.346,3.346,0,0,0-1.984.511,1.622,1.622,0,0,0-.708,1.389,1.345,1.345,0,0,0,.808,1.148,6.358,6.358,0,0,0,2.013.7,23,23,0,0,1,2.609.666,22.137,22.137,0,0,1,2.608.992,4.87,4.87,0,0,1,2.821,4.55,5.518,5.518,0,0,1-1.942,4.394,8.388,8.388,0,0,1-5.627,1.673" transform="translate(-32.945 -2.178)" fill="#212a2f"/>
        <path id="Trazado_3" data-name="Trazado 3" d="M327.771,38.653H314.39V19.745h13.381v3.543h-9.355v4h9.157v3.543h-9.157V35.11h9.355Z" transform="translate(-35.254 -2.214)" fill="#212a2f"/>
        <path id="Trazado_4" data-name="Trazado 4" d="M341.278,38.653h-4.054V23.288H331.7V19.745h15.081v3.543h-5.5Z" transform="translate(-37.195 -2.214)" fill="#212a2f"/>
        <path id="Trazado_5" data-name="Trazado 5" d="M366.9,38.653h-4.62l-3.714-6.718h-2.948v6.718h-4.026V19.744h8.846a6.293,6.293,0,0,1,4.635,1.7,5.919,5.919,0,0,1,1.715,4.394,5.7,5.7,0,0,1-1.2,3.771,5.294,5.294,0,0,1-2.934,1.843Zm-7.058-10.262a2.985,2.985,0,0,0,2.041-.694,2.569,2.569,0,0,0,0-3.714,2.99,2.99,0,0,0-2.041-.694h-4.224v5.1Z" transform="translate(-39.425 -2.214)" fill="#212a2f"/>
        <path id="Trazado_6" data-name="Trazado 6" d="M389.5,38.654H384.9l-1.163-3.2h-8.108l-1.191,3.2h-4.592l7.314-18.909h5.046Zm-6.86-6.747-2.949-8.136-2.948,8.136Z" transform="translate(-41.473 -2.214)" fill="#212a2f"/>
        <path id="Trazado_7" data-name="Trazado 7" d="M401.914,38.955a10.02,10.02,0,0,1-7.186-2.736,9.286,9.286,0,0,1-2.878-7.045,9.286,9.286,0,0,1,2.878-7.044,10.02,10.02,0,0,1,7.186-2.736,8.513,8.513,0,0,1,7.909,4.62l-3.458,1.7a5.207,5.207,0,0,0-1.829-1.97,4.736,4.736,0,0,0-2.622-.78,5.616,5.616,0,0,0-4.252,1.757,6.194,6.194,0,0,0-1.673,4.451,6.191,6.191,0,0,0,1.673,4.451,5.613,5.613,0,0,0,4.252,1.758,4.8,4.8,0,0,0,2.622-.765,5.046,5.046,0,0,0,1.829-1.984l3.458,1.673a8.621,8.621,0,0,1-7.909,4.649" transform="translate(-43.94 -2.175)" fill="#212a2f"/>
        <path id="Trazado_8" data-name="Trazado 8" d="M430.995,38.653h-4.961l-5.726-7.569-1.475,1.758v5.811h-4.026V19.745h4.026v8.448l6.691-8.448h4.96l-7.512,8.873Z" transform="translate(-46.514 -2.214)" fill="#212a2f"/>
        <path id="Trazado_9" data-name="Trazado 9" d="M216.336,2.813a9.509,9.509,0,1,0,9.508,9.509,9.508,9.508,0,0,0-9.508-9.509m0,14.434a4.925,4.925,0,1,1,4.925-4.925,4.925,4.925,0,0,1-4.925,4.925" transform="translate(-23.193 -0.315)" fill="#212a2f"/>
        <path id="Trazado_10" data-name="Trazado 10" d="M236.016,2.813h0a3.633,3.633,0,0,0-3.145,1.816L211.916,40.919l-4.2-7.266-4.194-7.264-12.4-21.477c-.026-.045-.054-.089-.083-.132s-.051-.1-.08-.151h0a3.629,3.629,0,0,0-3.143-1.815H171.04A3.631,3.631,0,0,0,167.9,8.26h0c.024.042.05.081.075.121s.055.108.086.162L191.973,49.96c.006.012.012.026.02.038l0,0a3.631,3.631,0,0,0,6.289,0l5.244-9.083L208.77,50a3.631,3.631,0,0,0,6.289,0l0,0c.007-.012.012-.026.02-.038l24.079-41.7a3.631,3.631,0,0,0-3.144-5.447M195.137,40.919,177.329,10.076h8.391l13.612,23.577Z" transform="translate(-18.772 -0.315)" fill="#212a2f"/>
      </g>
    </g>
  </g>
</svg>
