<svg id="Grupo_16680" data-name="Grupo 16680" xmlns="http://www.w3.org/2000/svg" xmlns:xlink="http://www.w3.org/1999/xlink" width="104.374" height="44.755" viewBox="0 0 104.374 44.755">
  <defs>
    <clipPath id="clip-path">
      <rect id="Rect치ngulo_11046" data-name="Rect치ngulo 11046" width="104.374" height="44.755" fill="#fff"/>
    </clipPath>
  </defs>
  <rect id="Rect치ngulo_11045" data-name="Rect치ngulo 11045" width="4.606" height="13.663" transform="translate(70.115 9.214)" fill="#fff"/>
  <path id="Trazado_17469" data-name="Trazado 17469" d="M329.964,75.427h-5.143l-1.74-9.211-1.74,9.211H316.2l-4.324-13.663h5.066l1.791,9.774,1.638-9.672h5.476l1.74,9.7,1.74-9.8h4.963Z" transform="translate(-265.348 -52.55)" fill="#fff"/>
  <g id="Grupo_16658" data-name="Grupo 16658">
    <g id="Grupo_16657" data-name="Grupo 16657" clip-path="url(#clip-path)">
      <path id="Trazado_17470" data-name="Trazado 17470" d="M525.494,63.711h-4.529c-.2-.946-.665-1.484-1.484-1.484a1.011,1.011,0,0,0-1.1,1c0,.767.615,1.279,3.224,1.919,2.482.614,4.247,1.689,4.247,4.324,0,2.917-2.738,4.273-6.038,4.273-3.71,0-6.243-1.535-6.6-4.605h4.529a2.139,2.139,0,0,0,2.047,1.739c.819,0,1.458-.332,1.458-1.049,0-.87-.87-1.356-3.3-1.919-2.61-.614-4.171-1.817-4.171-4.145,0-2.712,2.354-4.4,5.987-4.4,3.4,0,5.373,1.868,5.731,4.349" transform="translate(-436.65 -50.506)" fill="#fff"/>
      <path id="Trazado_17471" data-name="Trazado 17471" d="M618.865,67.7h-9.518c.23,2.277,1.228,2.917,2.533,2.917a2.065,2.065,0,0,0,2.277-1.714h4.529c-.793,3.1-3.352,4.835-6.857,4.835-3.915,0-7.036-2.328-7.036-7.138a6.956,6.956,0,0,1,7.292-7.241c4.554,0,6.857,3.48,6.857,7.011a12.245,12.245,0,0,1-.077,1.331M609.5,64.889h4.631c-.256-1.612-1.049-2.405-2.278-2.405-1.2,0-2.047.717-2.354,2.405" transform="translate(-514.568 -50.506)" fill="#fff"/>
      <path id="Trazado_17472" data-name="Trazado 17472" d="M11.752,12.233A41.507,41.507,0,0,1,40.119.008c3.006-.137,4.67,1.727,4.025,4.237C43.628,6.268,42,6.53,40.321,6.571a33.508,33.508,0,0,0-14.349,3.468c-10.127,5.039-16.4,13.174-19.138,24.1A6.335,6.335,0,0,0,6.709,35.5a2.239,2.239,0,0,0,1.344,2.408c1.356.347,1.63-.936,1.83-2.075,1.883-10.674,8.28-17.988,17.531-22.978A26.284,26.284,0,0,1,35.12,10.39a8.091,8.091,0,0,1,3.426,15.767c-8.1,2.057-12.431,7.11-12.984,15.445a2.959,2.959,0,0,1-3.38,3.048,2.979,2.979,0,0,1-3.031-3.407A21.048,21.048,0,0,1,26.245,25.4a23.294,23.294,0,0,1,9.66-5.31c.743-.2,2.087-1.238,1.817-2.153s-1.954-1.055-2.712-.833c-9.762,2.867-16.166,9.043-18.525,19.146A14.975,14.975,0,0,1,14.639,41.2a7.943,7.943,0,0,1-9.882,2.867c-3.465-1.5-5.279-4.874-4.626-9a40.709,40.709,0,0,1,11.62-22.833" transform="translate(0 -0.001)" fill="#fff" fill-rule="evenodd"/>
      <path id="Trazado_17473" data-name="Trazado 17473" d="M208.994,211.434a5.8,5.8,0,0,1,2.763-1.553,6.717,6.717,0,0,1,3.2-.014,5.529,5.529,0,0,1,2.674,1.46,6.215,6.215,0,0,1,1.866,4.423,5.884,5.884,0,0,1-6.173,6.091,6.129,6.129,0,0,1-4.433-1.775,5.717,5.717,0,0,1-1.632-4.29,5.969,5.969,0,0,1,1.736-4.343" transform="translate(-176.338 -178.4)" fill="#fff"/>
      <path id="Trazado_17474" data-name="Trazado 17474" d="M474.578,162.635a2.383,2.383,0,1,1-2.379-2.252,2.172,2.172,0,0,1,2.379,2.252" transform="translate(-399.73 -136.457)" fill="#fff"/>
      <path id="Trazado_17475" data-name="Trazado 17475" d="M474.578,162.635a2.383,2.383,0,1,1-2.379-2.252,2.172,2.172,0,0,1,2.379,2.252" transform="translate(-399.73 -136.457)" fill="#fff" stroke="#fff" stroke-miterlimit="10" stroke-width="1.841"/>
      <path id="Trazado_17476" data-name="Trazado 17476" d="M474.578,162.635a2.383,2.383,0,1,1-2.379-2.252,2.172,2.172,0,0,1,2.379,2.252" transform="translate(-399.73 -136.457)" fill="#fff"/>
      <path id="Trazado_17477" data-name="Trazado 17477" d="M363.061,167.147H359.41v-.556c0-1.058.529-1.535,1.455-1.535a5.094,5.094,0,0,1,1.826.344v-3.334a8.9,8.9,0,0,0-2.858-.4,4.411,4.411,0,0,0-3.255,1.111,4.68,4.68,0,0,0-1.138,3.44v.9h-1.667v3.308h1.667v10.743h4.022V170.428h3.6v10.743h4.022V161.854h-4.022Z" transform="translate(-300.997 -137.551)" fill="#fff"/>
      <path id="Trazado_17478" data-name="Trazado 17478" d="M457.448,195.549a7.061,7.061,0,0,0-7.012,7.383v.053a7.492,7.492,0,0,0,13.2,4.684l-2.3-2.038a4.648,4.648,0,0,1-3.44,1.455,3.29,3.29,0,0,1-3.466-2.778h9.87c.027-.371.053-.741.053-1.058,0-4.022-2.17-7.7-6.906-7.7m-3.069,6.245c.317-1.826,1.4-3.017,3.069-3.017,1.694,0,2.752,1.217,2.99,3.017Z" transform="translate(-383.239 -166.376)" fill="#fff"/>
      <path id="Trazado_17479" data-name="Trazado 17479" d="M552.872,195.549a7.061,7.061,0,0,0-7.012,7.383v.053a7.492,7.492,0,0,0,13.2,4.684l-2.3-2.038a4.648,4.648,0,0,1-3.44,1.455,3.29,3.29,0,0,1-3.466-2.778h9.87c.026-.371.053-.741.053-1.058,0-4.022-2.17-7.7-6.906-7.7m-3.07,6.245c.318-1.826,1.4-3.017,3.07-3.017,1.693,0,2.752,1.217,2.99,3.017Z" transform="translate(-464.427 -166.376)" fill="#fff"/>
      <path id="Trazado_17480" data-name="Trazado 17480" d="M648.026,180.087v-3.44h-3.334v-3.625h-4.022v3.625h-1.693v3.44h1.693v6.721c0,3.281,1.667,4.26,4.128,4.26a5.93,5.93,0,0,0,3.175-.82V187.02a4.09,4.09,0,0,1-1.985.5c-.9,0-1.3-.45-1.3-1.376v-6.06Z" transform="translate(-543.652 -147.21)" fill="#fff"/>
    </g>
  </g>
</svg>
